<svg xmlns="http://www.w3.org/2000/svg" viewBox="0 0 1200 420" role="img" aria-labelledby="title desc">
  <title id="title">MaxSelf health pillars constellation</title>
  <desc id="desc">Six connected quest emblems for cardio, strength and mobility, fuel, recovery, mindset, and biometrics.</desc>
  <defs>
    <linearGradient id="energyLine" x1="0" x2="1">
      <stop offset="0" stop-color="#f59e0b" stop-opacity=".12"/>
      <stop offset=".22" stop-color="#ff5a5f" stop-opacity=".64"/>
      <stop offset=".44" stop-color="#22c55e" stop-opacity=".55"/>
      <stop offset=".66" stop-color="#6366f1" stop-opacity=".6"/>
      <stop offset=".84" stop-color="#a855f7" stop-opacity=".58"/>
      <stop offset="1" stop-color="#22d3ee" stop-opacity=".16"/>
    </linearGradient>
    <radialGradient id="cardioGlow">
      <stop offset="0" stop-color="#f59e0b" stop-opacity=".42"/>
      <stop offset="1" stop-color="#f59e0b" stop-opacity="0"/>
    </radialGradient>
    <radialGradient id="strengthGlow">
      <stop offset="0" stop-color="#ff5a5f" stop-opacity=".38"/>
      <stop offset="1" stop-color="#ff5a5f" stop-opacity="0"/>
    </radialGradient>
    <radialGradient id="fuelGlow">
      <stop offset="0" stop-color="#22c55e" stop-opacity=".38"/>
      <stop offset="1" stop-color="#22c55e" stop-opacity="0"/>
    </radialGradient>
    <radialGradient id="recoveryGlow">
      <stop offset="0" stop-color="#6366f1" stop-opacity=".42"/>
      <stop offset="1" stop-color="#6366f1" stop-opacity="0"/>
    </radialGradient>
    <radialGradient id="mindsetGlow">
      <stop offset="0" stop-color="#a855f7" stop-opacity=".42"/>
      <stop offset="1" stop-color="#a855f7" stop-opacity="0"/>
    </radialGradient>
    <radialGradient id="biometricsGlow">
      <stop offset="0" stop-color="#06b6d4" stop-opacity=".44"/>
      <stop offset="1" stop-color="#06b6d4" stop-opacity="0"/>
    </radialGradient>
    <filter id="softGlow" x="-80%" y="-80%" width="260%" height="260%">
      <feGaussianBlur stdDeviation="6" result="blur"/>
      <feBlend in="SourceGraphic" in2="blur" mode="screen"/>
    </filter>
  </defs>

  <path d="M384 98c86 0 144 24 216 58s136-72 206-64c83 10 140 88 222 102-44 92-126 116-226 116-91 0-167 25-254 8" fill="none" stroke="url(#energyLine)" stroke-width="4" stroke-linecap="round" opacity=".72"/>
  <path d="M384 132c96 84 198 128 306 132 136 5 240-32 338-70" fill="none" stroke="url(#energyLine)" stroke-width="2" stroke-dasharray="10 16" stroke-linecap="round" opacity=".42"/>
  <path d="M384 98 600 156 806 92l222 102-226 116-254 8L384 98Z" fill="none" stroke="#f8fafc" stroke-width="1.5" opacity=".1"/>

  <g data-category="cardio" transform="translate(548 318)">
    <circle r="92" fill="url(#cardioGlow)"/>
    <circle r="62" fill="#431407" fill-opacity=".7" stroke="#f59e0b" stroke-width="3"/>
    <circle r="76" fill="none" stroke="#fbbf24" stroke-width="1.5" stroke-dasharray="28 10" opacity=".4"/>
    <g transform="translate(-28 -42)" fill="none" stroke="#fff7ed" stroke-linecap="round" stroke-linejoin="round">
      <circle cx="28" cy="10" r="9" fill="#fff7ed" stroke="none"/>
      <path d="M25 24 13 54l23 22M18 36-3 47M34 39l24-11M35 76 18 105M36 75l34 19" stroke-width="7"/>
    </g>
  </g>

  <g data-category="strength" transform="translate(384 98)">
    <circle r="88" fill="url(#strengthGlow)"/>
    <circle r="59" fill="#450a0a" fill-opacity=".72" stroke="#ff5a5f" stroke-width="3"/>
    <circle r="72" fill="none" stroke="#fb7185" stroke-width="1.5" stroke-dasharray="18 10" opacity=".38"/>
    <g fill="none" stroke="#fee2e2" stroke-linecap="round">
      <path d="M-40 0h80" stroke-width="9"/>
      <path d="M-31-18v36M-19-24v48M19-24v48M31-18v36" stroke-width="8"/>
      <path d="M-26 34c17 13 35 13 52 0" stroke="#fb7185" stroke-width="5" opacity=".8"/>
    </g>
  </g>

  <g data-category="fuel" transform="translate(600 156)">
    <circle r="90" fill="url(#fuelGlow)"/>
    <circle r="60" fill="#052e16" fill-opacity=".72" stroke="#22c55e" stroke-width="3"/>
    <circle r="74" fill="none" stroke="#4ade80" stroke-width="1.5" stroke-dasharray="24 11" opacity=".38"/>
    <path d="M0-42c30 24 44 48 44 70 0 26-18 43-44 43S-44 54-44 28c0-22 14-46 44-70Z" fill="#22c55e" fill-opacity=".56" stroke="#dcfce7" stroke-width="4"/>
    <path d="M2-18c12 15 18 29 18 44 0 14-7 24-18 29" fill="none" stroke="#dcfce7" stroke-width="5" stroke-linecap="round" opacity=".82"/>
    <path d="M-34 18c-17-12-30-11-40 2 17 9 31 8 40-2Z" fill="#bbf7d0" opacity=".88"/>
  </g>

  <g data-category="recovery" transform="translate(806 92)">
    <circle r="88" fill="url(#recoveryGlow)"/>
    <circle r="59" fill="#1e1b4b" fill-opacity=".74" stroke="#6366f1" stroke-width="3"/>
    <circle r="72" fill="none" stroke="#818cf8" stroke-width="1.5" stroke-dasharray="16 12" opacity=".42"/>
    <path d="M18-43c-14 31 5 65 39 70-11 18-32 29-56 29-37 0-66-29-66-66 0-26 15-49 37-60-6 34 14 62 46 27Z" fill="#e0e7ff" opacity=".9"/>
    <g fill="#fef3c7">
      <circle cx="38" cy="-34" r="3"/><circle cx="51" cy="-14" r="2"/><circle cx="30" cy="12" r="2.5"/>
    </g>
  </g>

  <g data-category="mindset" transform="translate(1028 194)">
    <circle r="90" fill="url(#mindsetGlow)"/>
    <circle r="60" fill="#2e1065" fill-opacity=".74" stroke="#a855f7" stroke-width="3"/>
    <circle r="74" fill="none" stroke="#c084fc" stroke-width="1.5" stroke-dasharray="22 12" opacity=".42"/>
    <path d="M-30 3c-15-12-13-34 5-42 1-17 25-26 39-13 18-12 44 1 45 23 15 10 17 33 2 45 6 18-13 37-32 29-13 16-39 12-46-7-20 3-33-20-13-35Z" fill="#f5d0fe" opacity=".9"/>
    <path d="M-11-40c-8 14-5 27 8 39m25-47C10-36 9-22 20-7M-26 14c20-7 38-3 52 12M0-3c15-1 28 4 40 16" fill="none" stroke="#7e22ce" stroke-width="5" stroke-linecap="round" opacity=".76"/>
  </g>

  <g data-category="biometrics" transform="translate(802 310)">
    <circle r="92" fill="url(#biometricsGlow)"/>
    <circle r="61" fill="#083344" fill-opacity=".74" stroke="#06b6d4" stroke-width="3"/>
    <circle r="75" fill="none" stroke="#22d3ee" stroke-width="1.5" stroke-dasharray="20 11" opacity=".42"/>
    <g fill="none" stroke="#ecfeff" stroke-linecap="round" stroke-linejoin="round">
      <path d="M-38-25v-16h16M38-25v-16H22M-38 25v16h16M38 25v16H22" stroke-width="4"/>
      <circle cy="-24" r="10" stroke-width="5"/>
      <path d="M0-12c-16 0-23 12-23 29M0-12c16 0 23 12 23 29M-17 4h34M-20 19h40M-7 19l-6 23m20-23 6 23" stroke-width="5"/>
      <path d="M-34-7h7m54 0h7M-34 8h5m58 0h5M-34 23h7m54 0h7" stroke="#67e8f9" stroke-width="3"/>
    </g>
  </g>

  <g fill="#fef3c7" opacity=".8" filter="url(#softGlow)">
    <path d="M274 62h8v8h-8z" transform="rotate(45 278 66)"/>
    <path d="M510 48h6v6h-6z" transform="rotate(45 513 51)"/>
    <path d="M934 70h8v8h-8z" transform="rotate(45 938 74)"/>
    <circle cx="700" cy="54" r="3"/>
    <circle cx="1094" cy="300" r="3"/>
    <circle cx="472" cy="280" r="2.5"/>
  </g>
</svg>
