<svg xmlns="http://www.w3.org/2000/svg" viewBox="0 0 280 720" role="img" aria-labelledby="title desc">
  <title id="title">Strength and mobility pillar</title>
  <desc id="desc">A red performance pillar with a barbell, mobility arcs, and training marks.</desc>
  <defs>
    <linearGradient id="bg" x1="0" x2="1" y1="0" y2="1">
      <stop offset="0" stop-color="#450a0a"/>
      <stop offset=".54" stop-color="#7f1d1d"/>
      <stop offset="1" stop-color="#111827"/>
    </linearGradient>
  </defs>
  <rect width="280" height="720" rx="34" fill="url(#bg)"/>
  <circle cx="210" cy="120" r="92" fill="#ff5a5f" opacity=".22"/>
  <circle cx="76" cy="562" r="132" fill="#f97316" opacity=".12"/>
  <g transform="translate(76 34) scale(.82)" fill="none" stroke="#fee2e2" stroke-linecap="round" stroke-linejoin="round" opacity=".9">
    <path d="M2 80h210" stroke-width="12"/>
    <path d="M34 48v64M56 36v88M156 36v88M178 48v64" stroke-width="14"/>
    <path d="M104 118c-44 16-62 54-48 98 16 50 86 56 112 16" stroke="#fb7185" stroke-width="7" opacity=".78"/>
    <path d="M104 118c24 10 46 31 64 64" stroke="#fed7aa" stroke-width="6" opacity=".72"/>
  </g>
  <g fill="#fecaca" opacity=".42">
    <rect x="52" y="462" width="32" height="9" rx="4" transform="rotate(-18 68 466.5)"/>
    <rect x="105" y="494" width="52" height="9" rx="4" transform="rotate(12 131 498.5)"/>
    <rect x="38" y="538" width="78" height="9" rx="4" transform="rotate(18 77 542.5)"/>
    <rect x="148" y="572" width="56" height="9" rx="4" transform="rotate(-16 176 576.5)"/>
  </g>
  <path d="M42 86c36-22 78-26 126-12 28 8 50 7 70-4" fill="none" stroke="#fecaca" stroke-width="3" opacity=".36"/>
  <path d="M32 658h216" stroke="#fee2e2" stroke-width="1" opacity=".12"/>
</svg>
