<svg xmlns="http://www.w3.org/2000/svg" viewBox="0 0 280 720" role="img" aria-labelledby="title desc">
  <title id="title">Fuel pillar</title>
  <desc id="desc">A green pillar with water, leaves, and nutrition energy.</desc>
  <defs>
    <linearGradient id="bg" x1="0" x2="1" y1="0" y2="1">
      <stop offset="0" stop-color="#052e16"/>
      <stop offset=".55" stop-color="#166534"/>
      <stop offset="1" stop-color="#0f172a"/>
    </linearGradient>
    <linearGradient id="drop" x1="0" x2="1" y1="0" y2="1">
      <stop offset="0" stop-color="#bbf7d0"/>
      <stop offset=".5" stop-color="#22c55e"/>
      <stop offset="1" stop-color="#06b6d4"/>
    </linearGradient>
  </defs>
  <rect width="280" height="720" rx="34" fill="url(#bg)"/>
  <circle cx="70" cy="134" r="112" fill="#22c55e" opacity=".18"/>
  <path d="M146 126c56 44 84 90 84 138 0 50-34 84-84 84s-84-34-84-84c0-48 28-94 84-138Z" fill="url(#drop)" opacity=".64"/>
  <path d="M146 178c22 25 34 52 34 80 0 27-15 45-34 45" fill="none" stroke="#dcfce7" stroke-width="8" stroke-linecap="round" opacity=".58"/>
  <g fill="#bbf7d0" opacity=".82">
    <path d="M86 410c44-34 83-38 118-13-36 28-75 32-118 13Z"/>
    <path d="M82 488c50-26 92-22 126 13-44 21-86 17-126-13Z"/>
    <path d="M78 566c54-20 96-9 126 34-48 15-90 4-126-34Z"/>
  </g>
  <path d="M60 410c70 46 116 102 140 176" fill="none" stroke="#dcfce7" stroke-width="5" stroke-linecap="round" opacity=".62"/>
  <path d="M36 652c32-30 67-44 105-43 36 0 70-12 102-38" fill="none" stroke="#22c55e" stroke-width="8" stroke-linecap="round" opacity=".52"/>
  <circle cx="220" cy="96" r="22" fill="#facc15" opacity=".58"/>
  <path d="M32 92h40M30 222h52M194 384h50" stroke="#dcfce7" stroke-width="2" opacity=".22"/>
</svg>
