<svg xmlns="http://www.w3.org/2000/svg" viewBox="0 0 420 420" role="img" aria-labelledby="title desc">
  <title id="title">XP reward burst</title>
  <desc id="desc">A bright reward burst with gems, rays, and XP energy.</desc>
  <defs>
    <radialGradient id="core" cx=".5" cy=".5" r=".5">
      <stop offset="0" stop-color="#fff7ed"/>
      <stop offset=".35" stop-color="#facc15"/>
      <stop offset=".68" stop-color="#f97316" stop-opacity=".72"/>
      <stop offset="1" stop-color="#f97316" stop-opacity="0"/>
    </radialGradient>
    <linearGradient id="gem" x1="0" x2="1" y1="0" y2="1">
      <stop offset="0" stop-color="#a7f3d0"/>
      <stop offset=".48" stop-color="#22d3ee"/>
      <stop offset="1" stop-color="#7c3aed"/>
    </linearGradient>
  </defs>
  <circle cx="210" cy="210" r="190" fill="url(#core)" opacity=".92"/>
  <g stroke="#fef3c7" stroke-width="10" stroke-linecap="round" opacity=".9">
    <path d="M210 28v64M210 328v64M28 210h64M328 210h64M82 82l45 45M293 293l45 45M338 82l-45 45M127 293l-45 45"/>
  </g>
  <g fill="url(#gem)">
    <path d="M210 108 262 166 244 264 210 306 176 264 158 166Z"/>
    <path d="M112 174 146 206 136 260 92 276 66 236Z" opacity=".85"/>
    <path d="M308 174 354 236 328 276 284 260 274 206Z" opacity=".85"/>
  </g>
  <path d="M158 166h104l-52 140Z" fill="#ecfeff" opacity=".3"/>
  <text x="210" y="235" text-anchor="middle" font-family="Inter, Arial, sans-serif" font-size="82" font-weight="900" fill="#fff7ed" stroke="#7c2d12" stroke-width="6" paint-order="stroke">XP</text>
  <g fill="#fff7ed">
    <path d="M70 318h16v16H70z" transform="rotate(45 78 326)"/>
    <path d="M326 64h18v18h-18z" transform="rotate(45 335 73)"/>
    <path d="M60 106h12v12H60z" transform="rotate(45 66 112)"/>
    <path d="M344 322h12v12h-12z" transform="rotate(45 350 328)"/>
  </g>
</svg>
